<svg width="24" height="22" viewBox="0 0 24 22" fill="none" xmlns="http://www.w3.org/2000/svg">
<path d="M15.5 4.75C16.6 4.75 17.5 3.85 17.5 2.75C17.5 1.65 16.6 0.75 15.5 0.75C14.4 0.75 13.5 1.65 13.5 2.75C13.5 3.85 14.4 4.75 15.5 4.75ZM5 11.25C2.2 11.25 0 13.45 0 16.25C0 19.05 2.2 21.25 5 21.25C7.8 21.25 10 19.05 10 16.25C10 13.45 7.8 11.25 5 11.25ZM5 19.75C3.1 19.75 1.5 18.15 1.5 16.25C1.5 14.35 3.1 12.75 5 12.75C6.9 12.75 8.5 14.35 8.5 16.25C8.5 18.15 6.9 19.75 5 19.75ZM10.8 9.75L13.2 7.35L14 8.15C15.3 9.45 17 10.25 19.1 10.25V8.25C17.6 8.25 16.4 7.65 15.5 6.75L13.6 4.85C13.1 4.45 12.6 4.25 12 4.25C11.4 4.25 10.9 4.45 10.6 4.85L7.8 7.65C7.4 8.05 7.2 8.55 7.2 9.05C7.2 9.65 7.4 10.15 7.8 10.45L11 13.25V18.25H13V12.05L10.8 9.75ZM19 11.25C16.2 11.25 14 13.45 14 16.25C14 19.05 16.2 21.25 19 21.25C21.8 21.25 24 19.05 24 16.25C24 13.45 21.8 11.25 19 11.25ZM19 19.75C17.1 19.75 15.5 18.15 15.5 16.25C15.5 14.35 17.1 12.75 19 12.75C20.9 12.75 22.5 14.35 22.5 16.25C22.5 18.15 20.9 19.75 19 19.75Z" fill="#FCFCFC"/>
</svg>
