<svg width="12" height="18" viewBox="0 0 12 18" fill="none" xmlns="http://www.w3.org/2000/svg">
<path d="M6.38991 7.9C4.11991 7.31 3.38991 6.7 3.38991 5.75C3.38991 4.66 4.39991 3.9 6.08991 3.9C7.86991 3.9 8.52991 4.75 8.58991 6H10.7999C10.7299 4.28 9.67991 2.7 7.58991 2.19V0H4.58991V2.16C2.64991 2.58 1.08991 3.84 1.08991 5.77C1.08991 8.08 2.99991 9.23 5.78991 9.9C8.28991 10.5 8.78991 11.38 8.78991 12.31C8.78991 13 8.29991 14.1 6.08991 14.1C4.02991 14.1 3.21991 13.18 3.10991 12H0.909912C1.02991 14.19 2.66991 15.42 4.58991 15.83V18H7.58991V15.85C9.53991 15.48 11.0899 14.35 11.0899 12.3C11.0899 9.46 8.65991 8.49 6.38991 7.9Z" fill="#4E4B66"/>
</svg>
