<svg width="21" height="20" viewBox="0 0 21 20" fill="none" xmlns="http://www.w3.org/2000/svg">
<path d="M14 2C14 0.89 14.89 0 16 0C17.11 0 18 0.89 18 2C18 3.11 17.11 4 16 4C14.89 4 14 3.11 14 2ZM18 20V14H20.5L17.96 6.37C17.68 5.55 16.92 5 16.06 5H15.94C15.08 5 14.31 5.55 14.04 6.37L13.18 8.95C14.26 9.55 15 10.68 15 12V20H18ZM10.5 9.5C11.33 9.5 12 8.83 12 8C12 7.17 11.33 6.5 10.5 6.5C9.67 6.5 9 7.17 9 8C9 8.83 9.67 9.5 10.5 9.5ZM3.5 4C4.61 4 5.5 3.11 5.5 2C5.5 0.89 4.61 0 3.5 0C2.39 0 1.5 0.89 1.5 2C1.5 3.11 2.39 4 3.5 4ZM5.5 20V13H7V7C7 5.9 6.1 5 5 5H2C0.9 5 0 5.9 0 7V13H1.5V20H5.5ZM12 20V16H13V12C13 11.18 12.32 10.5 11.5 10.5H9.5C8.68 10.5 8 11.18 8 12V16H9V20H12Z" fill="#FCFCFC"/>
</svg>
