<svg width="134" height="56" viewBox="0 0 134 56" fill="none" xmlns="http://www.w3.org/2000/svg">
<path d="M43.5754 49.3026V45.2M43.5754 45.2L42.5726 44.1972H43.9401M43.5754 45.2H49.4102M49.4102 45.2L50.413 44.1972H48.8632M49.4102 45.2V49.3026M48.8632 44.1972L49.6837 43.559H48.5897M48.8632 44.1972H43.9401M43.9401 44.1972L43.3931 43.559H44.3959M44.3959 43.559L43.5754 42.7385H44.5783M44.3959 43.559H48.5897M48.5897 43.559L49.1367 42.7385H48.4985M48.4985 42.7385C48.377 42.3434 48.0791 41.5533 47.8603 41.5533C47.6415 41.5533 47.4045 42.3434 47.3133 42.7385M48.4985 42.7385H47.3133M47.3133 42.7385H47.2222M47.2222 42.7385V41.5533C47.131 41.1583 46.8575 40.3681 46.4928 40.3681C46.1281 40.3681 45.8546 41.1583 45.7635 41.5533V42.7385M47.2222 42.7385H45.7635M45.7635 42.7385H45.5811M45.5811 42.7385C45.5811 42.3434 45.49 41.5533 45.1253 41.5533C44.7606 41.5533 44.6087 42.3434 44.5783 42.7385M45.5811 42.7385H44.5783" stroke="black" stroke-width="0.44"/>
<path d="M45.3074 49.3029V46.659H47.8601V49.3029" stroke="black" stroke-width="0.44"/>
<path d="M46.2193 20.4022L45.9458 19.6729L45.3076 19.5817H45.7634M47.3133 18.7612V19.4905L46.8574 20.4934L47.2221 19.6729L47.9515 19.5817H45.7634M47.3133 18.7612H48.0426H45.7634M47.3133 18.7612L46.5839 16.2997L45.8546 18.8524M45.3076 18.7612H45.7634M45.7634 18.7612V19.5817" stroke="black" stroke-width="0.44"/>
<path d="M46.4926 20.4023C45.9821 20.4023 45.6721 21.2532 45.5809 21.6786H47.5866C47.4347 21.2532 47.0032 20.4023 46.4926 20.4023Z" stroke="black" stroke-width="0.44"/>
<path d="M43.7577 27.6045V26.784H49.319V27.6045" stroke="black" stroke-width="0.44"/>
<path d="M44.0315 26.841V26.0877H49.1369V26.841" stroke="black" stroke-width="0.44"/>
<path d="M44.2136 26.0518V25.3524H48.9544V26.0518" stroke="black" stroke-width="0.44"/>
<path d="M44.3958 25.3255V24.4138H48.7719V25.3255" stroke="black" stroke-width="0.44"/>
<path d="M44.5783 24.4855V23.8936H48.5897V24.4855" stroke="black" stroke-width="0.44"/>
<path d="M44.7606 23.8844V23.3464H48.4073V23.8844" stroke="black" stroke-width="0.44"/>
<path d="M44.9428 23.2839V22.7996H48.2249V23.2839" stroke="black" stroke-width="0.44"/>
<path d="M45.1253 22.865V22.4346H48.0427V22.865" stroke="black" stroke-width="0.44"/>
<path d="M45.3076 22.4467V22.0701H47.8603V22.4467" stroke="black" stroke-width="0.44"/>
<path d="M45.4898 22.0279V21.7051H47.6779V22.0279" stroke="black" stroke-width="0.44"/>
<path d="M47.3133 28.4247H49.5014L49.5925 30.0658" stroke="black" stroke-width="0.44"/>
<path d="M43.4841 28.516L43.5753 27.6043H46.208" stroke="black" stroke-width="0.44"/>
<path d="M46.5837 27.6043H49.41V28.4249" stroke="black" stroke-width="0.44"/>
<path d="M64.2438 49.4849C63.112 45.61 60.7673 42.2098 57.5611 39.7936C54.3549 37.3775 50.4597 36.0756 46.4592 36.0829C42.4587 36.0902 38.5682 37.4064 35.3707 39.8342C32.1732 42.262 29.8407 45.6708 28.7228 49.5498L29.2701 49.7106C30.3535 45.9511 32.6141 42.6473 35.7132 40.2942C38.8123 37.9412 42.5829 36.6655 46.4602 36.6584C50.3376 36.6514 54.1128 37.9132 57.2202 40.2549C60.3277 42.5966 62.6002 45.8921 63.6971 49.6477L64.2438 49.4849Z" fill="black"/>
<path d="M42.2078 36.6298V31.7067H50.5953V36.6298" stroke="black" stroke-width="0.44"/>
<path d="M41.8431 30.0657V31.7068H51.2334V30.0657L50.3217 28.4247L49.7747 30.0657H48.7718L46.4015 27.4219L43.9399 30.0657H43.0283L42.4812 28.3335L41.8431 30.0657Z" stroke="black" stroke-width="0.44"/>
<path d="M43.2107 30.0653L43.393 28.5155H45.384" stroke="black" stroke-width="0.44"/>
<path d="M46.3 34.4929L46.2357 34.2786L46.3 34.15H46.4929L46.5786 34.3857L46.4929 34.6429H46.1286C46.0857 34.6286 46 34.5786 46 34.4929C46 34.4071 46 34.2286 46 34.15L46.1286 34H46.3643H46.6643L46.75 34.2786V34.7286L46.4929 34.8357L46.3643 34.9429V35.2643V35.4786" stroke="black" stroke-width="0.44"/>
<path d="M32 6V8" stroke="black" stroke-width="0.33"/>
<path d="M35.5526 18.6697L35.7349 16.208C35.2487 15.813 34.0574 15.0228 33.1822 15.0228C32.0882 15.0228 30.903 14.9317 30.4472 15.0228C29.9913 15.114 28.4415 15.5699 28.3503 15.8434C28.2774 16.0622 28.2895 17.8491 28.2591 18.7608" stroke="black" stroke-width="0.55"/>
<path d="M28.2591 16.8459C28.7757 16.6028 30.046 16.1165 30.9941 16.1165C32.1793 16.1165 32.9998 16.0254 33.7292 16.2077C34.3126 16.3536 35.2486 16.7547 35.6437 16.9371" stroke="black" stroke-width="0.55"/>
<path d="M28.2591 17.5978C28.7757 17.3547 30.046 16.8685 30.9941 16.8685C32.1793 16.8685 32.9998 16.7773 33.7292 16.9597C34.3126 17.1055 35.2486 17.5067 35.6437 17.689" stroke="black" stroke-width="0.55"/>
<path d="M31.2674 15.0234V16.1175V16.8468V17.3026" stroke="black" stroke-width="0.55"/>
<path d="M30.0824 16.2081L30.1736 17.5757" stroke="black" stroke-width="0.55"/>
<path d="M33.8203 15.2052V17.5756" stroke="black" stroke-width="0.55"/>
<path d="M32.544 16.117V17.3508" stroke="black" stroke-width="0.55"/>
<path d="M34.7322 16.5723V18.031" stroke="black" stroke-width="0.55"/>
<path d="M29.1709 19.3989C28.715 19.2166 28.168 18.9431 28.2592 18.7607C28.3503 18.5784 28.9885 17.8491 30.356 17.4844C31.7235 17.1197 33.1822 17.3932 33.9116 17.6667C34.6409 17.9402 35.8261 18.6696 35.5526 18.7607C35.3338 18.8337 35.1575 18.9735 35.0968 19.0342" stroke="black" stroke-width="0.55"/>
<path d="M28.6238 32.6446C28.9461 32.2149 30.1224 31.3717 32.2493 31.4361C34.3763 31.5006 35.4289 32.1132 35.6438 32.4355" stroke="black" stroke-width="0.55"/>
<path d="M28.806 28.5159C29.0968 28.128 30.1586 27.3668 32.0785 27.425C33.9985 27.4832 35.2673 28.0427 35.4612 28.3336" stroke="black" stroke-width="0.55"/>
<path d="M28.9884 24.6868C29.2793 24.2989 30.3411 23.5377 32.261 23.5959C34.1809 23.6541 35.0487 24.2504 35.2427 24.5413" stroke="black" stroke-width="0.55"/>
<path d="M29.0794 21.3128C29.3703 20.925 30.1586 19.8895 32.0785 19.9477C33.9984 20.0058 34.9026 20.5653 35.0965 20.8562" stroke="black" stroke-width="0.55"/>
<path d="M29.262 14.932C29.5529 14.5441 30.3412 13.5086 32.2611 13.5668C34.181 13.625 34.7205 14.4588 34.9144 14.7496" stroke="black" stroke-width="0.55"/>
<path d="M28.5325 34.3506L29.4442 11.8321C29.7785 11.437 30.7935 10.6651 32.1792 10.7381C33.565 10.811 34.4584 11.3155 34.7319 11.5586L36.0083 39.456" stroke="black" stroke-width="0.55"/>
<ellipse cx="32.4528" cy="28.9414" rx="0.364672" ry="0.243115" fill="black"/>
<ellipse cx="30.9941" cy="25.4766" rx="0.364672" ry="0.243115" fill="black"/>
<ellipse cx="33.3645" cy="22.1943" rx="0.364672" ry="0.243115" fill="black"/>
<ellipse cx="32.635" cy="12.166" rx="0.364672" ry="0.243115" fill="black"/>
<ellipse cx="30.447" cy="18.913" rx="0.364672" ry="0.243115" fill="black"/>
<path d="M33.0908 15.7872C33.0908 15.9214 33.3467 17.0563 32.5 17C31.7057 17 32.0617 15.9214 32.0617 15.7872C32.0617 15.6529 32.3161 15.5137 32.5175 15.5137C32.7189 15.5137 33.0908 15.6529 33.0908 15.7872Z" fill="black"/>
<path d="M34.8234 11.5579C34.8649 11.3141 34.7743 11.0645 34.641 10.8286C34.5077 10.5927 34.1361 10.2613 33.8542 10.0799C33.5723 9.8984 33.2314 9.75684 32.8566 9.66566C32.4819 9.57447 32.0829 9.53601 31.6893 9.55311C31.2956 9.57022 30.9174 9.64245 30.5827 9.76447C30.2479 9.88648 29.9652 10.0551 29.7554 10.258C29.5456 10.4608 29.4142 10.6926 29.3708 10.9362C29.3274 11.1798 29.2394 11.5705 29.371 11.8067L29.6268 11.7402C29.5097 11.53 29.6214 11.1812 29.66 10.9645C29.6986 10.7477 29.8156 10.5415 30.0023 10.361C30.189 10.1805 30.4406 10.0304 30.7385 9.92184C31.0363 9.81326 31.3729 9.74898 31.7232 9.73376C32.0734 9.71854 32.4284 9.75277 32.7619 9.83391C33.0954 9.91505 33.3988 10.041 33.6496 10.2025C33.9004 10.364 34.3401 10.7098 34.4587 10.9197C34.5773 11.1296 34.678 11.341 34.641 11.5579L34.8234 11.5579Z" fill="black"/>
<path d="M32.8658 9.36308C32.8658 9.56876 32.4768 9.7355 31.9969 9.7355C31.5169 9.7355 31.1279 9.56876 31.1279 9.36308C31.1279 9.1574 31.5169 8.99066 31.9969 8.99066C32.4768 8.99066 32.8658 9.1574 32.8658 9.36308ZM31.6363 9.36308C31.6363 9.44843 31.7977 9.51761 31.9969 9.51761C32.196 9.51761 32.3574 9.44843 32.3574 9.36308C32.3574 9.27773 32.196 9.20854 31.9969 9.20854C31.7977 9.20854 31.6363 9.27773 31.6363 9.36308Z" fill="black"/>
<path d="M32.5638 9.11627C32.6054 9.07633 32.6234 9.0326 32.6161 8.98896C32.6089 8.94533 32.5767 8.90313 32.5223 8.86611C32.4679 8.82909 32.3931 8.79839 32.3044 8.77673C32.2157 8.75506 32.1159 8.74311 32.0139 8.74192C31.9118 8.74073 31.8107 8.75035 31.7194 8.76991C31.6281 8.78948 31.5495 8.81839 31.4905 8.85409C31.4315 8.88979 31.394 8.93117 31.3812 8.97458C31.3684 9.01798 31.3808 9.06206 31.4173 9.10292L31.7565 9.04729C31.7413 9.03034 31.7362 9.01204 31.7415 8.99403C31.7468 8.97602 31.7624 8.95885 31.7868 8.94404C31.8113 8.92922 31.8439 8.91723 31.8818 8.90911C31.9197 8.90099 31.9617 8.897 32.004 8.89749C32.0464 8.89799 32.0878 8.90295 32.1246 8.91193C32.1614 8.92092 32.1924 8.93366 32.215 8.94902C32.2375 8.96439 32.2509 8.9819 32.2539 9C32.2569 9.01811 32.2495 9.03625 32.2322 9.05283L32.5638 9.11627Z" fill="black"/>
<path d="M32.4317 8.86536C32.4936 8.82984 32.5306 8.78749 32.5383 8.74327C32.5459 8.69905 32.5239 8.65482 32.4749 8.61578C32.4259 8.57673 32.3518 8.5445 32.2615 8.52288C32.1712 8.50127 32.0683 8.49116 31.965 8.49374C31.8617 8.49633 31.7623 8.51151 31.6785 8.5375C31.5946 8.56348 31.5299 8.59919 31.4918 8.64042C31.4537 8.68165 31.4439 8.72668 31.4635 8.77021C31.4832 8.81374 31.5314 8.85396 31.6026 8.88614L31.8332 8.79248C31.8036 8.77913 31.7836 8.76244 31.7755 8.74437C31.7673 8.72631 31.7714 8.70762 31.7872 8.69052C31.803 8.67341 31.8299 8.65859 31.8647 8.64781C31.8994 8.63703 31.9407 8.63073 31.9836 8.62965C32.0264 8.62858 32.0691 8.63277 32.1066 8.64174C32.1441 8.65072 32.1748 8.66409 32.1951 8.68029C32.2155 8.69649 32.2246 8.71485 32.2214 8.73319C32.2183 8.75154 32.2029 8.76912 32.1772 8.78385L32.4317 8.86536Z" fill="black"/>
<path d="M32.2986 8.58424C32.3383 8.52689 32.361 8.45956 32.3643 8.38991C32.3676 8.32025 32.3513 8.25108 32.3172 8.19025C32.2831 8.12943 32.2326 8.0794 32.1714 8.04586C32.1103 8.01232 32.041 7.99662 31.9714 8.00055C31.9017 8.00447 31.8346 8.02786 31.7776 8.06805C31.7207 8.10825 31.6761 8.16363 31.649 8.2279C31.622 8.29217 31.6135 8.36274 31.6246 8.43158C31.6357 8.50043 31.6659 8.56477 31.7118 8.6173H31.8729C31.8471 8.58777 31.7918 8.44437 31.7856 8.40566C31.7793 8.36696 31.7841 8.32728 31.7993 8.29114C31.8145 8.255 31.8396 8.22386 31.8716 8.20127C31.9036 8.17867 31.9414 8.16551 31.9805 8.16331C32.0197 8.1611 32.0586 8.16993 32.093 8.18879C32.1274 8.20765 32.1558 8.23578 32.175 8.26998C32.1941 8.30417 32.2033 8.34307 32.2015 8.38223C32.1996 8.42139 32.1435 8.58506 32.1212 8.6173L32.2986 8.58424Z" fill="black"/>
<path d="M1 34.8973L2.45869 36.8119L34.641 36.903L36.1909 34.4415L34.641 35.3532L24.339 33.7121H13.1254L2.73219 35.3532L1 34.8973Z" stroke="black" stroke-width="0.328294"/>
<path d="M10.2497 27.7866L10.0869 27.4219H27.8946L27.53 27.7866H10.2497Z" fill="#3D3A3A" stroke="#3D3A3A" stroke-width="0.328294"/>
<path d="M15.6782 27.878L16.0429 29.8837" stroke="black" stroke-width="0.393953"/>
<path d="M18.8691 27.878V29.8837" stroke="black" stroke-width="0.492441"/>
<path d="M22.3335 27.878L21.6953 29.8837" stroke="black" stroke-width="0.393953"/>
<path d="M25.342 27.9688L24.0656 30.1568" stroke="black" stroke-width="0.328294"/>
<path d="M13.6724 31.5245L14.4017 33.439H23.4273L24.0655 31.5245H13.6724Z" stroke="black" stroke-width="0.328294"/>
<path d="M10.2993 40.9141H27.1654" stroke="black" stroke-width="0.328294"/>
<path d="M30.265 36.9951L27.1653 39.7302" stroke="black" stroke-width="0.328294"/>
<path d="M24.7037 36.9951L23.4274 39.7302" stroke="black" stroke-width="0.492441"/>
<path d="M7.74641 36.9951L10.1168 39.5479" stroke="black" stroke-width="0.328294"/>
<path d="M12.4872 36.9951L13.7635 39.7302" stroke="black" stroke-width="0.492441"/>
<path d="M18.5041 36.9951V39.9125" stroke="black" stroke-width="0.656587"/>
<path d="M9.38748 41.3702L2.54988 36.9941H34.4587L27.9858 41.3702M9.38748 41.3702H27.9858M9.38748 41.3702V49.0283L27.9858 49.2106V41.3702" stroke="black" stroke-width="0.328294"/>
<path d="M10.2993 27.878L13.399 33.5304H24.4304L27.4389 27.878H10.2993Z" stroke="black" stroke-width="0.328294"/>
<path d="M9.38749 25.8719L10.2992 26.9659H27.4388L28.7151 25.9631" stroke="black" stroke-width="0.328294"/>
<path d="M18.8689 20.8575L16.8632 26.6923H20.4188L18.8689 20.8575Z" stroke="black" stroke-width="0.328294"/>
<path d="M12.1226 27.878L13.5812 30.066" stroke="black" stroke-width="0.328294"/>
<path d="M12.5783 45.8373V46.9313H13.5811V45.8373M13.5811 45.8373H12.1224V45.4726H14.0369V45.8373H13.5811Z" stroke="black" stroke-width="0.328294"/>
<path d="M13.7635 45.473C13.7635 45.3037 13.6963 45.1414 13.5766 45.0217C13.4569 44.902 13.2946 44.8348 13.1253 44.8348C12.9561 44.8348 12.7938 44.902 12.6741 45.0217C12.5544 45.1414 12.4872 45.3037 12.4872 45.473L12.6627 45.473C12.6627 45.3503 12.7114 45.2326 12.7982 45.1458C12.885 45.0591 13.0026 45.0103 13.1253 45.0103C13.248 45.0103 13.3657 45.0591 13.4525 45.1458C13.5392 45.2326 13.588 45.3503 13.588 45.473H13.7635Z" fill="black"/>
<path d="M19.9628 43.9236C19.9628 43.5367 19.8091 43.1657 19.5355 42.8921C19.262 42.6186 18.891 42.4649 18.5041 42.4649C18.1172 42.4649 17.7462 42.6186 17.4727 42.8921C17.1991 43.1657 17.0454 43.5367 17.0454 43.9236L17.3576 43.9236C17.3576 43.6195 17.4784 43.3279 17.6934 43.1129C17.9084 42.8979 18.2 42.7771 18.5041 42.7771C18.8082 42.7771 19.0998 42.8979 19.3148 43.1129C19.5298 43.3279 19.6506 43.6195 19.6506 43.9236H19.9628Z" fill="black"/>
<path d="M23.154 45.8373V46.9313H24.1569V45.8373M24.1569 45.8373H22.6982V45.4726H24.6127V45.8373H24.1569Z" stroke="black" stroke-width="0.328294"/>
<path d="M24.3393 45.473C24.3393 45.3037 24.2721 45.1414 24.1524 45.0217C24.0327 44.902 23.8704 44.8348 23.7011 44.8348C23.5319 44.8348 23.3695 44.902 23.2499 45.0217C23.1302 45.1414 23.0629 45.3037 23.0629 45.473L23.2385 45.473C23.2385 45.3503 23.2872 45.2326 23.374 45.1458C23.4607 45.0591 23.5784 45.0103 23.7011 45.0103C23.8238 45.0103 23.9415 45.0591 24.0283 45.1458C24.115 45.2326 24.1638 45.3503 24.1638 45.473H24.3393Z" fill="black"/>
<path d="M16.681 49.0286V43.9231H20.1454V49.0286" stroke="black" stroke-width="0.328294"/>
<ellipse cx="44" cy="33.5" rx="1" ry="0.5" fill="black"/>
<ellipse cx="49" cy="33.5" rx="1" ry="0.5" fill="black"/>
<path d="M88.4812 19.9844C88.5984 19.9844 88.7 20.0312 88.7859 20.125C88.8718 20.2109 88.9148 20.2891 88.9148 20.3594C88.9148 20.6328 88.5984 21.0703 87.9656 21.6719C87.3406 22.2656 86.5203 22.7773 85.5047 23.207C84.489 23.6289 83.4148 23.8398 82.282 23.8398C80.4539 23.8398 78.864 23.4414 77.5125 22.6445C76.1687 21.8477 75.1375 20.7383 74.4187 19.3164C73.7 17.8945 73.3406 16.418 73.3406 14.8867C73.3406 13.3555 73.6922 11.9219 74.3953 10.5859C75.0984 9.24219 76.0984 8.19531 77.3953 7.44531C78.6922 6.69531 80.1961 6.32031 81.907 6.32031C83.0007 6.32031 84.0086 6.46484 84.9304 6.75391C85.8601 7.03516 86.5906 7.37891 87.1218 7.78516C87.6609 8.19141 87.9304 8.5 87.9304 8.71094C87.9304 9.03906 87.9226 9.33594 87.907 9.60156C87.8914 9.86719 87.8836 10.0273 87.8836 10.082C87.8836 10.1758 87.9109 10.3203 87.9656 10.5156C88.0203 10.7031 88.0476 10.8789 88.0476 11.043C88.0476 11.3008 87.8875 11.4297 87.5672 11.4297C87.4656 11.4297 87.364 11.3828 87.2625 11.2891C87.1609 11.1953 87.0125 10.9336 86.8172 10.5039C86.4031 9.58984 85.9578 8.92578 85.4812 8.51172C84.6453 7.78516 83.4773 7.42188 81.9773 7.42188C80.0476 7.42188 78.5437 8.125 77.4656 9.53125C76.3953 10.9297 75.8601 12.7383 75.8601 14.957C75.8601 17.3711 76.4422 19.2812 77.6062 20.6875C78.7703 22.0859 80.3406 22.7852 82.3172 22.7852C82.825 22.7852 83.6218 22.6172 84.7078 22.2812C85.8015 21.9375 86.8797 21.2773 87.9422 20.3008C88.1765 20.0898 88.3562 19.9844 88.4812 19.9844ZM98.1492 11.5234C98.5086 11.5234 98.8172 11.6562 99.075 11.9219C99.3406 12.1797 99.4734 12.4883 99.4734 12.8477C99.4734 13.168 99.3445 13.4414 99.0867 13.668C98.8289 13.8867 98.5242 13.9961 98.1726 13.9961C97.8211 13.9961 97.5164 13.875 97.2586 13.6328C97.0086 13.3828 96.8836 13.0859 96.8836 12.7422C96.8836 12.4141 97.0086 12.1289 97.2586 11.8867C97.5164 11.6445 97.8132 11.5234 98.1492 11.5234ZM99.0867 21.7188C99.0867 22.1016 99.157 22.3516 99.2976 22.4688C99.4382 22.5859 99.6257 22.6641 99.8601 22.7031C100.094 22.7344 100.259 22.7812 100.352 22.8438C100.454 22.9062 100.505 23.0352 100.505 23.2305C100.505 23.4883 100.278 23.6172 99.825 23.6172C99.6297 23.6172 99.3367 23.5938 98.9461 23.5469C98.5554 23.5 98.2664 23.4766 98.0789 23.4766C97.8914 23.4766 97.6179 23.5078 97.2586 23.5703C96.8992 23.6328 96.6297 23.6641 96.45 23.6641C96.2703 23.6641 96.114 23.6133 95.9812 23.5117C95.8562 23.4102 95.7937 23.2773 95.7937 23.1133C95.7937 23.0117 95.8289 22.9258 95.8992 22.8555C95.9695 22.7773 96.1492 22.7148 96.4382 22.668C96.7273 22.6211 96.9265 22.5273 97.0359 22.3867C97.1531 22.2461 97.2117 21.9062 97.2117 21.3672V17.4062C97.2117 17.0703 97.1414 16.8477 97.0007 16.7383C96.8601 16.6289 96.6531 16.5469 96.3797 16.4922C96.1062 16.4375 95.9343 16.3672 95.864 16.2812C95.8015 16.1953 95.7703 16.0898 95.7703 15.9648C95.7703 15.8242 95.825 15.7109 95.9343 15.625C96.0515 15.5312 96.1882 15.4844 96.3445 15.4844C96.4773 15.4844 96.6648 15.5117 96.907 15.5664C97.157 15.6211 97.3406 15.6484 97.4578 15.6484C97.5906 15.6484 97.7937 15.6289 98.0672 15.5898C98.3406 15.5508 98.5437 15.5312 98.6765 15.5312C98.9656 15.5312 99.1101 15.7734 99.1101 16.2578C99.1101 16.3359 99.1062 16.4414 99.0984 16.5742C99.0906 16.6992 99.0867 16.7852 99.0867 16.832V21.7188ZM111.134 20.9336C111.134 21.5898 111.165 22.0117 111.227 22.1992C111.29 22.3789 111.403 22.4688 111.567 22.4688C111.825 22.4688 112.141 22.3281 112.516 22.0469C112.891 21.7656 113.141 21.625 113.266 21.625C113.368 21.625 113.458 21.6719 113.536 21.7656C113.614 21.8594 113.653 21.9727 113.653 22.1055C113.653 22.3242 113.344 22.6875 112.727 23.1953C112.118 23.7031 111.579 23.957 111.11 23.957C109.876 23.957 109.259 23.0508 109.259 21.2383V16.7266C109.259 16.5781 109.239 16.5 109.2 16.4922C109.161 16.4766 108.942 16.4688 108.544 16.4688C108.231 16.4688 108.02 16.4258 107.911 16.3398C107.802 16.2461 107.747 16.1133 107.747 15.9414C107.747 15.793 107.786 15.6875 107.864 15.625C107.95 15.5625 108.11 15.5 108.344 15.4375C108.587 15.3672 108.77 15.2891 108.895 15.2031C109.028 15.1094 109.208 14.9219 109.434 14.6406C109.669 14.3516 109.833 13.9492 109.927 13.4336C110.028 12.918 110.079 12.1758 110.079 11.207C110.079 10.7461 110.204 10.5156 110.454 10.5156C110.735 10.5156 110.911 10.582 110.981 10.7148C111.052 10.8398 111.087 11.0547 111.087 11.3594V15.2734C111.087 15.4297 111.188 15.5078 111.391 15.5078H113.055C113.391 15.5078 113.559 15.6523 113.559 15.9414C113.559 16.2773 113.317 16.4453 112.833 16.4453H111.368C111.259 16.4453 111.192 16.4648 111.169 16.5039C111.145 16.5352 111.134 16.6211 111.134 16.7617V20.9336ZM129.462 15.5547C129.735 15.5547 129.872 15.7461 129.872 16.1289C129.872 16.8867 129.884 17.9922 129.907 19.4453C129.93 20.8984 129.942 21.875 129.942 22.375C129.942 24.125 129.739 25.375 129.333 26.125C128.927 26.8828 128.489 27.4102 128.02 27.707C127.559 28.0039 126.993 28.1523 126.321 28.1523C125.751 28.1523 125.298 28.0703 124.962 27.9062C124.634 27.7422 124.469 27.5938 124.469 27.4609C124.469 27.3984 124.501 27.3281 124.563 27.25C124.626 27.1797 124.7 27.1445 124.786 27.1445C124.848 27.1445 124.973 27.1836 125.161 27.2617C125.356 27.3477 125.575 27.3906 125.817 27.3906C126.255 27.3906 126.68 27.2422 127.094 26.9453C127.516 26.6562 127.786 26.2539 127.903 25.7383C128.028 25.2227 128.091 24.4531 128.091 23.4297C128.091 19.7578 128.079 17.7148 128.055 17.3008C128.04 16.8867 127.751 16.6367 127.188 16.5508C126.626 16.457 126.344 16.2695 126.344 15.9883C126.344 15.6992 126.544 15.5547 126.942 15.5547C127.075 15.5547 127.313 15.5781 127.657 15.625C128.009 15.6719 128.298 15.6953 128.524 15.6953C128.696 15.6953 128.876 15.6719 129.063 15.625C129.251 15.5781 129.384 15.5547 129.462 15.5547ZM127.282 22.082C127.485 22.082 127.587 22.1797 127.587 22.375C127.587 22.6172 127.274 22.918 126.649 23.2773C126.024 23.6367 125.403 23.8164 124.786 23.8164C124.364 23.8164 123.911 23.6758 123.427 23.3945C122.942 23.1055 122.637 22.75 122.512 22.3281C122.395 21.8984 122.337 21.1289 122.337 20.0195L122.36 17.6641C122.36 17.0312 122.079 16.6562 121.516 16.5391C121.188 16.4766 120.977 16.418 120.884 16.3633C120.798 16.3008 120.755 16.1836 120.755 16.0117C120.755 15.8867 120.79 15.7812 120.86 15.6953C120.93 15.6016 121.024 15.5547 121.141 15.5547C121.251 15.5547 121.473 15.5938 121.809 15.6719C122.145 15.7422 122.36 15.7773 122.454 15.7773C122.563 15.7773 122.79 15.7422 123.134 15.6719C123.477 15.5938 123.692 15.5547 123.778 15.5547C123.833 15.5547 123.899 15.582 123.977 15.6367C124.055 15.6914 124.098 15.75 124.106 15.8125C124.122 15.875 124.137 16.418 124.153 17.4414C124.177 18.4648 124.188 19.4062 124.188 20.2656C124.188 20.9219 124.212 21.3984 124.259 21.6953C124.305 21.9844 124.45 22.2227 124.692 22.4102C124.942 22.5898 125.27 22.6797 125.677 22.6797C125.981 22.6797 126.298 22.582 126.626 22.3867C126.954 22.1836 127.173 22.082 127.282 22.082Z" fill="#14142B"/>
<path d="M83.032 32.5781C83.2976 32.5781 83.5125 32.8555 83.6765 33.4102C83.8406 33.9648 83.9226 34.4805 83.9226 34.957C83.9226 35.4336 83.7703 35.6719 83.4656 35.6719C83.3562 35.6719 83.2547 35.6367 83.1609 35.5664C83.075 35.4961 82.95 35.25 82.7859 34.8281C82.6297 34.3984 82.3914 34.1094 82.0711 33.9609C81.7586 33.8047 81.4148 33.7266 81.0398 33.7266C80.5086 33.7266 80.1218 33.8516 79.8797 34.1016C79.6453 34.3438 79.5281 34.7422 79.5281 35.2969V47.7422C79.5281 47.9297 79.5828 48.0977 79.6922 48.2461C79.8093 48.3867 80.0476 48.5117 80.407 48.6211C80.7664 48.7227 80.9851 48.8125 81.0632 48.8906C81.1414 48.9688 81.1804 49.0586 81.1804 49.1602C81.1804 49.5664 80.9656 49.7695 80.5359 49.7695C80.3015 49.7695 79.9578 49.7305 79.5047 49.6523C79.0515 49.582 78.7156 49.5469 78.4968 49.5469C78.2937 49.5469 77.9968 49.5781 77.6062 49.6406C77.2156 49.7031 76.9187 49.7344 76.7156 49.7344C76.4734 49.7344 76.2664 49.6797 76.0945 49.5703C75.9226 49.4609 75.8367 49.3086 75.8367 49.1133C75.8367 49.0195 75.8679 48.9375 75.9304 48.8672C75.9929 48.7891 76.2 48.6992 76.5515 48.5977C76.9031 48.4883 77.1375 48.3242 77.2547 48.1055C77.3797 47.8867 77.4422 47.6406 77.4422 47.3672V34.8164C77.4422 34.0586 76.9304 33.6797 75.907 33.6797C75.2429 33.6797 74.7703 33.8281 74.489 34.125C74.3172 34.2969 74.1922 34.5625 74.114 34.9219C74.0359 35.2734 73.9539 35.4844 73.8679 35.5547C73.7898 35.6172 73.6922 35.6484 73.575 35.6484C73.45 35.6484 73.3289 35.6172 73.2117 35.5547C73.1023 35.4844 73.0476 35.3984 73.0476 35.2969C73.0476 34.4453 73.1218 33.7812 73.2703 33.3047C73.4187 32.8203 73.6336 32.5781 73.9148 32.5781H83.032ZM92.2547 41.0742C93.5515 41.0742 94.6804 41.5195 95.6414 42.4102C96.6101 43.3008 97.0945 44.3281 97.0945 45.4922C97.0945 46.7969 96.6336 47.8594 95.7117 48.6797C94.7898 49.5 93.5554 49.9102 92.0086 49.9102C90.7898 49.9102 89.6922 49.4922 88.7156 48.6562C87.7468 47.8203 87.2625 46.7812 87.2625 45.5391C87.2625 44.3516 87.6882 43.3125 88.5398 42.4219C89.3992 41.5234 90.6375 41.0742 92.2547 41.0742ZM92.2781 48.8789C93.1765 48.8789 93.8914 48.5547 94.4226 47.9062C94.9617 47.2578 95.2312 46.4375 95.2312 45.4453C95.2312 44.4688 94.9422 43.668 94.364 43.043C93.7937 42.418 93.0672 42.1055 92.1843 42.1055C91.2781 42.1055 90.575 42.4141 90.075 43.0312C89.575 43.6406 89.325 44.4297 89.325 45.3984C89.325 46.4688 89.6023 47.3164 90.157 47.9414C90.7117 48.5664 91.4187 48.8789 92.2781 48.8789ZM108.122 43.5469C108.122 42.9844 107.817 42.6602 107.208 42.5742C106.841 42.5195 106.61 42.4531 106.516 42.375C106.423 42.2891 106.376 42.1836 106.376 42.0586C106.376 41.7695 106.598 41.625 107.044 41.625C107.161 41.625 107.395 41.668 107.747 41.7539C108.106 41.832 108.489 41.8711 108.895 41.8711C109.005 41.8711 109.141 41.8555 109.305 41.8242C109.469 41.793 109.571 41.7773 109.61 41.7773C109.821 41.7773 109.927 42.0156 109.927 42.4922C109.927 46.0938 109.958 48.0117 110.02 48.2461C110.083 48.4727 110.399 48.6562 110.969 48.7969C111.266 48.875 111.45 48.9453 111.52 49.0078C111.591 49.0703 111.626 49.1445 111.626 49.2305C111.626 49.332 111.559 49.4258 111.427 49.5117C111.302 49.5977 111.137 49.6406 110.934 49.6406C110.848 49.6406 110.637 49.6133 110.302 49.5586C109.966 49.5039 109.727 49.4766 109.587 49.4766C109.438 49.4766 109.259 49.5039 109.048 49.5586C108.837 49.6133 108.696 49.6406 108.626 49.6406C108.454 49.6406 108.337 49.5938 108.274 49.5C108.212 49.4062 108.169 49.1758 108.145 48.8086C108.13 48.4414 108.122 47.7344 108.122 46.6875V43.5469ZM104.243 47.5547C104.243 47.9375 104.387 48.2539 104.677 48.5039C104.973 48.7539 105.325 48.8789 105.731 48.8789C105.981 48.8789 106.274 48.7812 106.61 48.5859C106.954 48.3828 107.204 48.2812 107.36 48.2812C107.516 48.2812 107.594 48.375 107.594 48.5625C107.594 48.7812 107.302 49.0625 106.716 49.4062C106.137 49.7422 105.481 49.9102 104.747 49.9102C104.177 49.9102 103.677 49.7344 103.247 49.3828C102.825 49.0312 102.579 48.6406 102.509 48.2109C102.446 47.7812 102.415 46.1719 102.415 43.3828C102.415 43.0078 102.032 42.7344 101.266 42.5625C100.93 42.4922 100.762 42.3633 100.762 42.1758C100.762 42.0508 100.813 41.9531 100.915 41.8828C101.024 41.8125 101.157 41.7773 101.313 41.7773C101.36 41.7773 101.587 41.8086 101.993 41.8711C102.407 41.9336 102.755 41.9648 103.036 41.9648C103.137 41.9648 103.286 41.9375 103.481 41.8828C103.684 41.8203 103.809 41.7891 103.856 41.7891C104.114 41.7891 104.243 42.3203 104.243 43.3828V47.5547ZM119.009 43.8633L119.055 44.1914C119.094 44.1914 119.278 43.8203 119.606 43.0781C119.934 42.3359 120.259 41.8086 120.579 41.4961C120.899 41.1836 121.231 41.0273 121.575 41.0273C121.841 41.0273 122.04 41.0742 122.173 41.168C122.313 41.2617 122.384 41.3672 122.384 41.4844C122.384 41.6875 122.337 41.8516 122.243 41.9766C122.149 42.0938 121.985 42.2422 121.751 42.4219C120.759 43.1797 120.04 44.1016 119.594 45.1875C119.157 46.2734 118.938 47.1758 118.938 47.8945C118.938 48.2305 118.981 48.4609 119.067 48.5859C119.161 48.7031 119.38 48.8047 119.723 48.8906C120.067 48.9688 120.29 49.0547 120.391 49.1484C120.493 49.2422 120.544 49.3516 120.544 49.4766C120.544 49.7031 120.407 49.8164 120.134 49.8164C119.915 49.8164 119.61 49.7773 119.219 49.6992C118.837 49.6289 118.423 49.5938 117.977 49.5938C117.68 49.5938 117.38 49.6289 117.075 49.6992C116.77 49.7773 116.575 49.8164 116.489 49.8164C116.27 49.8164 116.094 49.7734 115.962 49.6875C115.829 49.6094 115.762 49.5078 115.762 49.3828C115.762 49.2891 115.798 49.207 115.868 49.1367C115.946 49.0586 116.157 48.9609 116.501 48.8438C116.844 48.7266 117.055 48.6094 117.134 48.4922C117.212 48.375 117.251 48.0078 117.251 47.3906V43.8164C117.251 43.5898 117.196 43.3867 117.087 43.207C116.985 43.0273 116.774 42.8906 116.454 42.7969C116.141 42.6953 115.954 42.6094 115.891 42.5391C115.837 42.4688 115.809 42.3906 115.809 42.3047C115.809 42.0469 115.993 41.918 116.36 41.918C116.462 41.918 116.63 41.9375 116.864 41.9766C117.106 42.0156 117.274 42.0352 117.368 42.0352C117.446 42.0352 117.571 42.0195 117.743 41.9883C117.923 41.957 118.134 41.9414 118.376 41.9414C118.798 41.9414 119.009 42.3906 119.009 43.2891V43.8633ZM128.208 42.9258C128.208 43.1055 128.29 43.2891 128.454 43.4766C128.626 43.6641 129.165 43.9961 130.071 44.4727C130.977 44.9492 131.587 45.418 131.899 45.8789C132.219 46.332 132.38 46.8125 132.38 47.3203C132.38 48.1094 132.048 48.7383 131.384 49.207C130.727 49.6758 129.876 49.9102 128.829 49.9102C128.251 49.9102 127.673 49.7812 127.094 49.5234C126.524 49.2734 126.239 49.0195 126.239 48.7617C126.239 48.5508 126.223 48.293 126.192 47.9883C126.161 47.6758 126.145 47.4258 126.145 47.2383C126.145 46.8555 126.321 46.6641 126.673 46.6641C126.774 46.6641 126.868 46.707 126.954 46.793C127.04 46.8789 127.177 47.168 127.364 47.6602C127.552 48.1445 127.778 48.4766 128.044 48.6562C128.317 48.8359 128.622 48.9258 128.958 48.9258C129.372 48.9258 129.723 48.7891 130.012 48.5156C130.302 48.2422 130.446 47.8906 130.446 47.4609C130.446 47.1797 130.348 46.918 130.153 46.6758C129.958 46.4258 129.423 46.0938 128.548 45.6797C127.68 45.2656 127.114 44.8633 126.848 44.4727C126.591 44.0742 126.462 43.6445 126.462 43.1836C126.462 42.5742 126.743 42.0625 127.305 41.6484C127.876 41.2344 128.536 41.0273 129.286 41.0273C129.911 41.0273 130.52 41.1367 131.114 41.3555C131.708 41.5664 132.005 41.793 132.005 42.0352C132.005 42.1836 132.02 42.3672 132.052 42.5859C132.083 42.8047 132.098 42.9805 132.098 43.1133C132.098 43.2773 132.055 43.4219 131.969 43.5469C131.891 43.6719 131.79 43.7344 131.665 43.7344C131.485 43.7344 131.356 43.6914 131.278 43.6055C131.208 43.5117 131.141 43.3516 131.079 43.125C131.016 42.8984 130.915 42.7188 130.774 42.5859C130.634 42.4531 130.446 42.332 130.212 42.2227C129.977 42.1133 129.716 42.0586 129.427 42.0586C129.137 42.0586 128.86 42.1523 128.594 42.3398C128.337 42.5195 128.208 42.7148 128.208 42.9258Z" fill="#14142B"/>
</svg>
