<svg width="200" height="84" viewBox="0 0 200 84" fill="none" xmlns="http://www.w3.org/2000/svg">
<path d="M64.8632 73.9535V67.7996M64.8632 67.7996L63.3589 66.2953H65.4102M64.8632 67.7996H73.6153M73.6153 67.7996L75.1196 66.2953H72.7948M73.6153 67.7996V73.9535M72.7948 66.2953L74.0256 65.3381H72.3845M72.7948 66.2953H65.4102M65.4102 66.2953L64.5897 65.3381H66.0939M66.0939 65.3381L64.8632 64.1073H66.3674M66.0939 65.3381H72.3845M72.3845 65.3381L73.205 64.1073H72.2478M72.2478 64.1073C72.0654 63.5147 71.6187 62.3295 71.2905 62.3295C70.9623 62.3295 70.6067 63.5147 70.47 64.1073M72.2478 64.1073H70.47M70.47 64.1073H70.3332M70.3332 64.1073V62.3295C70.1965 61.7369 69.7862 60.5518 69.2392 60.5518C68.6922 60.5518 68.282 61.7369 68.1452 62.3295V64.1073M70.3332 64.1073H68.1452M68.1452 64.1073H67.8717M67.8717 64.1073C67.8717 63.5147 67.735 62.3295 67.1879 62.3295C66.6409 62.3295 66.413 63.5147 66.3674 64.1073M67.8717 64.1073H66.3674" stroke="#FCFCFC" stroke-width="0.66"/>
<path d="M67.4609 73.9541V69.9883H71.29V73.9541" stroke="#FCFCFC" stroke-width="0.66"/>
<path d="M68.8289 30.6031L68.4187 29.509L67.4614 29.3723H68.1452M70.47 28.1415V29.2355L69.7862 30.7398L70.3332 29.509L71.4272 29.3723H68.1452M70.47 28.1415H71.564H68.1452M70.47 28.1415L69.376 24.4492L68.2819 28.2783M67.4614 28.1415H68.1452M68.1452 28.1415V29.3723" stroke="#FCFCFC" stroke-width="0.66"/>
<path d="M69.2391 30.603C68.4733 30.603 68.0083 31.8794 67.8716 32.5176H70.8801C70.6522 31.8794 70.0049 30.603 69.2391 30.603Z" stroke="#FCFCFC" stroke-width="0.66"/>
<path d="M65.1367 41.4066V40.1758H73.4786V41.4066" stroke="#FCFCFC" stroke-width="0.66"/>
<path d="M65.5474 40.2612V39.1313H73.2055V40.2612" stroke="#FCFCFC" stroke-width="0.66"/>
<path d="M65.8203 39.0775V38.0283H72.9314V39.0775" stroke="#FCFCFC" stroke-width="0.66"/>
<path d="M66.0938 37.9879V36.6204H72.6579V37.9879" stroke="#FCFCFC" stroke-width="0.66"/>
<path d="M66.3677 36.7281V35.8403H72.3848V36.7281" stroke="#FCFCFC" stroke-width="0.66"/>
<path d="M66.6406 35.8263V35.0193H72.1107V35.8263" stroke="#FCFCFC" stroke-width="0.66"/>
<path d="M66.9143 34.9256V34.1992H71.8374V34.9256" stroke="#FCFCFC" stroke-width="0.66"/>
<path d="M67.188 34.2975V33.6519H71.5641V34.2975" stroke="#FCFCFC" stroke-width="0.66"/>
<path d="M67.4614 33.6699V33.105H71.2905V33.6699" stroke="#FCFCFC" stroke-width="0.66"/>
<path d="M67.7346 33.0419V32.5576H71.0167V33.0419" stroke="#FCFCFC" stroke-width="0.66"/>
<path d="M70.4697 42.6367H73.7518L73.8885 45.0983" stroke="#FCFCFC" stroke-width="0.66"/>
<path d="M64.7261 42.7738L64.8628 41.4062H68.8119" stroke="#FCFCFC" stroke-width="0.66"/>
<path d="M69.3755 41.4062H73.6148V42.637" stroke="#FCFCFC" stroke-width="0.66"/>
<path d="M95.8657 74.227C94.1681 68.4147 90.6511 63.3144 85.8418 59.6902C81.0324 56.066 75.1897 54.1131 69.1889 54.1241C63.1882 54.135 57.3525 56.1093 52.5562 59.751C47.7599 63.3928 44.2612 68.5059 42.5844 74.3244L43.4052 74.5657C45.0304 68.9264 48.4213 63.9707 53.0699 60.4411C57.7185 56.9115 63.3745 54.998 69.1905 54.9874C75.0065 54.9768 80.6693 56.8695 85.3305 60.3821C89.9917 63.8947 93.4004 68.8379 95.0458 74.4713L95.8657 74.227Z" fill="#FCFCFC"/>
<path d="M62.8115 54.9444V47.5598H75.3927V54.9444" stroke="#FCFCFC" stroke-width="0.66"/>
<path d="M62.2646 45.0986V47.5602H76.3501V45.0986L74.9826 42.6371L74.1621 45.0986H72.6578L69.1023 41.1328L65.4099 45.0986H64.0424L63.2219 42.5003L62.2646 45.0986Z" stroke="#FCFCFC" stroke-width="0.66"/>
<path d="M64.3159 45.0977L64.5894 42.7729H67.5758" stroke="#FCFCFC" stroke-width="0.66"/>
<path d="M68.95 51.7393L68.8536 51.4179L68.95 51.225H69.2393L69.3679 51.5786L69.2393 51.9643H68.6929C68.6286 51.9429 68.5 51.8679 68.5 51.7393C68.5 51.6107 68.5 51.3429 68.5 51.225L68.6929 51H69.0464H69.4964L69.625 51.4179V52.0929L69.2393 52.2536L69.0464 52.4143V52.8964V53.2179" stroke="#FCFCFC" stroke-width="0.66"/>
<path d="M47.5 9V12" stroke="#FCFCFC" stroke-width="0.495"/>
<path d="M52.8288 28.0046L53.1023 24.3122C52.373 23.7196 50.5861 22.5344 49.2733 22.5344C47.6323 22.5344 45.8545 22.3977 45.1707 22.5344C44.487 22.6712 42.1622 23.355 42.0254 23.7653C41.916 24.0935 41.9343 26.7738 41.8887 28.1414" stroke="#FCFCFC" stroke-width="0.825"/>
<path d="M41.8887 25.2688C42.6636 24.9042 44.569 24.1748 45.9912 24.1748C47.769 24.1748 48.9998 24.0381 50.0938 24.3116C50.969 24.5304 52.373 25.1321 52.9656 25.4056" stroke="#FCFCFC" stroke-width="0.825"/>
<path d="M41.8887 26.3968C42.6636 26.0321 44.569 25.3027 45.9912 25.3027C47.769 25.3027 48.9998 25.166 50.0938 25.4395C50.969 25.6583 52.373 26.26 52.9656 26.5335" stroke="#FCFCFC" stroke-width="0.825"/>
<path d="M46.4009 22.5352V24.1762V25.2702V25.954" stroke="#FCFCFC" stroke-width="0.825"/>
<path d="M44.6235 24.312L44.7603 26.3633" stroke="#FCFCFC" stroke-width="0.825"/>
<path d="M50.23 22.8081V26.3637" stroke="#FCFCFC" stroke-width="0.825"/>
<path d="M48.3159 24.1753V26.026" stroke="#FCFCFC" stroke-width="0.825"/>
<path d="M51.5981 24.8584L51.5981 27.0464" stroke="#FCFCFC" stroke-width="0.825"/>
<path d="M43.2561 29.0983C42.5724 28.8248 41.7519 28.4146 41.8886 28.1411C42.0254 27.8676 42.9826 26.7735 45.0339 26.2265C47.0852 25.6795 49.2732 26.0898 50.3672 26.5C51.4612 26.9103 53.239 28.0043 52.8288 28.1411C52.5005 28.2504 52.2362 28.4601 52.145 28.5513" stroke="#FCFCFC" stroke-width="0.825"/>
<path d="M42.4355 48.9669C42.9189 48.3224 44.6834 47.0575 47.8738 47.1542C51.0643 47.2508 52.6432 48.1698 52.9655 48.6532" stroke="#FCFCFC" stroke-width="0.825"/>
<path d="M42.709 42.7738C43.1453 42.192 44.738 41.0503 47.6179 41.1375C50.4977 41.2248 52.401 42.064 52.6919 42.5003" stroke="#FCFCFC" stroke-width="0.825"/>
<path d="M42.9824 37.0302C43.4188 36.4484 45.0114 35.3066 47.8913 35.3939C50.7712 35.4812 52.0729 36.3756 52.3638 36.812" stroke="#FCFCFC" stroke-width="0.825"/>
<path d="M43.1191 31.9693C43.5555 31.3875 44.7379 29.8342 47.6178 29.9215C50.4976 30.0088 51.8539 30.848 52.1448 31.2843" stroke="#FCFCFC" stroke-width="0.825"/>
<path d="M43.3931 22.398C43.8294 21.8162 45.0118 20.2629 47.8917 20.3502C50.7716 20.4375 51.5808 21.6881 51.8717 22.1245" stroke="#FCFCFC" stroke-width="0.825"/>
<path d="M42.2988 51.5256L43.6663 17.7479C44.1678 17.1553 45.6903 15.9974 47.7689 16.1068C49.8475 16.2162 51.1877 16.9729 51.598 17.3376L53.5125 59.1837" stroke="#FCFCFC" stroke-width="0.825"/>
<ellipse cx="48.1793" cy="43.412" rx="0.547009" ry="0.364672" fill="#FCFCFC"/>
<ellipse cx="45.9911" cy="38.2148" rx="0.547009" ry="0.364672" fill="#FCFCFC"/>
<ellipse cx="49.5465" cy="33.2914" rx="0.547009" ry="0.364672" fill="#FCFCFC"/>
<ellipse cx="48.4523" cy="18.2489" rx="0.547009" ry="0.364672" fill="#FCFCFC"/>
<ellipse cx="45.1705" cy="28.3696" rx="0.547009" ry="0.364672" fill="#FCFCFC"/>
<path d="M49.1359 23.6808C49.1359 23.8822 49.5197 25.5844 48.2497 25.5C47.0582 25.5 47.5922 23.8822 47.5922 23.6808C47.5922 23.4794 47.9739 23.2705 48.276 23.2705C48.5781 23.2705 49.1359 23.4794 49.1359 23.6808Z" fill="#FCFCFC"/>
<path d="M51.7349 17.3369C51.7972 16.9712 51.6613 16.5967 51.4613 16.2428C51.2614 15.889 50.7039 15.392 50.2811 15.1198C49.8583 14.8476 49.3469 14.6353 48.7847 14.4985C48.2226 14.3617 47.6241 14.304 47.0337 14.3297C46.4433 14.3553 45.876 14.4637 45.3738 14.6467C44.8717 14.8297 44.4476 15.0827 44.1329 15.387C43.8182 15.6912 43.621 16.0389 43.556 16.4043C43.4909 16.7696 43.359 17.3557 43.5563 17.7101L43.94 17.6104C43.7643 17.295 43.932 16.7719 43.9899 16.4467C44.0478 16.1216 44.2232 15.8122 44.5032 15.5415C44.7833 15.2707 45.1607 15.0456 45.6075 14.8828C46.0543 14.7199 46.5591 14.6235 47.0845 14.6006C47.6099 14.5778 48.1425 14.6292 48.6427 14.7509C49.1429 14.8726 49.598 15.0615 49.9742 15.3037C50.3505 15.546 51.0099 16.0647 51.1878 16.3796C51.3658 16.6945 51.5168 17.0115 51.4613 17.3369L51.7349 17.3369Z" fill="#FCFCFC"/>
<path d="M48.7983 14.0447C48.7983 14.3532 48.2147 14.6033 47.4949 14.6033C46.775 14.6033 46.1914 14.3532 46.1914 14.0447C46.1914 13.7362 46.775 13.4861 47.4949 13.4861C48.2147 13.4861 48.7983 13.7362 48.7983 14.0447ZM46.954 14.0447C46.954 14.1727 47.1962 14.2765 47.4949 14.2765C47.7936 14.2765 48.0357 14.1727 48.0357 14.0447C48.0357 13.9167 47.7936 13.8129 47.4949 13.8129C47.1962 13.8129 46.954 13.9167 46.954 14.0447Z" fill="#FCFCFC"/>
<path d="M48.3457 13.6745C48.4081 13.6145 48.4351 13.549 48.4242 13.4835C48.4133 13.4181 48.365 13.3548 48.2834 13.2992C48.2018 13.2437 48.0896 13.1976 47.9565 13.1651C47.8235 13.1327 47.6738 13.1147 47.5208 13.1129C47.3677 13.1112 47.216 13.1256 47.0791 13.1549C46.9421 13.1843 46.8242 13.2276 46.7357 13.2812C46.6472 13.3347 46.5909 13.3968 46.5718 13.4619C46.5526 13.527 46.5712 13.5932 46.626 13.6544L47.1347 13.571C47.112 13.5456 47.1042 13.5181 47.1122 13.4911C47.1201 13.4641 47.1435 13.4383 47.1802 13.4161C47.2169 13.3939 47.2659 13.3759 47.3227 13.3637C47.3795 13.3515 47.4425 13.3456 47.506 13.3463C47.5695 13.347 47.6316 13.3545 47.6868 13.368C47.742 13.3814 47.7886 13.4006 47.8224 13.4236C47.8563 13.4466 47.8764 13.4729 47.8809 13.5001C47.8854 13.5272 47.8742 13.5544 47.8483 13.5793L48.3457 13.6745Z" fill="#FCFCFC"/>
<path d="M48.1474 13.2983C48.2403 13.245 48.2958 13.1814 48.3073 13.1151C48.3188 13.0488 48.2858 12.9824 48.2123 12.9239C48.1387 12.8653 48.0277 12.817 47.8922 12.7845C47.7567 12.7521 47.6023 12.7369 47.4474 12.7408C47.2925 12.7447 47.1433 12.7675 47.0176 12.8065C46.8918 12.8454 46.7947 12.899 46.7376 12.9608C46.6805 13.0227 46.6658 13.0902 46.6952 13.1555C46.7247 13.2208 46.7971 13.2812 46.9038 13.3294L47.2497 13.1889C47.2054 13.1689 47.1753 13.1439 47.1631 13.1168C47.1509 13.0897 47.157 13.0616 47.1807 13.036C47.2044 13.0103 47.2447 12.9881 47.2969 12.9719C47.3491 12.9558 47.4109 12.9463 47.4752 12.9447C47.5395 12.9431 47.6036 12.9494 47.6598 12.9628C47.716 12.9763 47.7621 12.9963 47.7926 13.0206C47.8231 13.045 47.8368 13.0725 47.8321 13.1C47.8273 13.1275 47.8043 13.1539 47.7657 13.176L48.1474 13.2983Z" fill="#FCFCFC"/>
<path d="M47.9477 12.8764C48.0072 12.7903 48.0414 12.6893 48.0463 12.5849C48.0512 12.4804 48.0267 12.3766 47.9756 12.2854C47.9244 12.1941 47.8487 12.1191 47.757 12.0688C47.6653 12.0185 47.5613 11.9949 47.4569 12.0008C47.3524 12.0067 47.2518 12.0418 47.1663 12.1021C47.0808 12.1624 47.014 12.2454 46.9734 12.3418C46.9328 12.4383 46.9202 12.5441 46.9368 12.6474C46.9534 12.7506 46.9987 12.8472 47.0675 12.926H47.3092C47.2705 12.8817 47.1876 12.6666 47.1782 12.6085C47.1689 12.5504 47.176 12.4909 47.1988 12.4367C47.2216 12.3825 47.2592 12.3358 47.3073 12.3019C47.3553 12.268 47.4119 12.2483 47.4706 12.245C47.5293 12.2417 47.5878 12.2549 47.6394 12.2832C47.6909 12.3115 47.7335 12.3537 47.7623 12.405C47.791 12.4563 47.8048 12.5146 47.802 12.5733C47.7993 12.6321 47.7151 12.8776 47.6816 12.926L47.9477 12.8764Z" fill="#FCFCFC"/>
<path d="M1 52.3461L3.18803 55.2179L51.4615 55.3547L53.7863 51.6624L51.4615 53.0299L36.0085 50.5684H19.188L3.59829 53.0299L1 52.3461Z" stroke="#FCFCFC" stroke-width="0.492441"/>
<path d="M14.8745 41.6798L14.6303 41.1328H41.3419L40.7949 41.6798H14.8745Z" fill="#FCFCFC" stroke="#FCFCFC" stroke-width="0.492441"/>
<path d="M23.0173 41.8169L23.5643 44.8254" stroke="#FCFCFC" stroke-width="0.590929"/>
<path d="M27.8037 41.8169V44.8254" stroke="#FCFCFC" stroke-width="0.738661"/>
<path d="M33.0002 41.8169L32.043 44.8254" stroke="#FCFCFC" stroke-width="0.590929"/>
<path d="M37.5132 41.9531L35.5986 45.2352" stroke="#FCFCFC" stroke-width="0.492441"/>
<path d="M20.0085 47.2866L21.1026 50.1584H34.641L35.5983 47.2866H20.0085Z" stroke="#FCFCFC" stroke-width="0.492441"/>
<path d="M14.949 61.3711H40.2481" stroke="#FCFCFC" stroke-width="0.492441"/>
<path d="M44.8976 55.4927L40.248 59.5952" stroke="#FCFCFC" stroke-width="0.492441"/>
<path d="M36.5554 55.4927L34.6409 59.5952" stroke="#FCFCFC" stroke-width="0.738661"/>
<path d="M11.1196 55.4927L14.6752 59.3217" stroke="#FCFCFC" stroke-width="0.492441"/>
<path d="M18.2305 55.4927L20.145 59.5952" stroke="#FCFCFC" stroke-width="0.738661"/>
<path d="M27.2563 55.4927V59.8687" stroke="#FCFCFC" stroke-width="0.984881"/>
<path d="M13.5811 62.0553L3.32471 55.4912H51.188L41.4786 62.0553M13.5811 62.0553H41.4786M13.5811 62.0553V73.5425L41.4786 73.816V62.0553" stroke="#FCFCFC" stroke-width="0.492441"/>
<path d="M14.949 41.8169L19.5985 50.2955H36.1456L40.6584 41.8169H14.949Z" stroke="#FCFCFC" stroke-width="0.492441"/>
<path d="M13.5811 38.8076L14.9486 40.4486H40.658L42.5725 38.9444" stroke="#FCFCFC" stroke-width="0.492441"/>
<path d="M27.8035 31.2861L24.7949 40.0383H30.1283L27.8035 31.2861Z" stroke="#FCFCFC" stroke-width="0.492441"/>
<path d="M17.6838 41.8169L19.8719 45.0989" stroke="#FCFCFC" stroke-width="0.492441"/>
<path d="M18.3676 68.756V70.397H19.8719V68.756M19.8719 68.756H17.6838V68.209H20.5556V68.756H19.8719Z" stroke="#FCFCFC" stroke-width="0.492441"/>
<path d="M20.1455 68.2092C20.1455 67.9553 20.0446 67.7119 19.8651 67.5323C19.6856 67.3528 19.4421 67.252 19.1882 67.252C18.9343 67.252 18.6909 67.3528 18.5113 67.5323C18.3318 67.7119 18.231 67.9553 18.231 68.2092H18.4943C18.4943 68.0252 18.5674 67.8487 18.6975 67.7185C18.8277 67.5884 19.0042 67.5153 19.1882 67.5153C19.3723 67.5153 19.5488 67.5884 19.6789 67.7185C19.8091 67.8487 19.8822 68.0252 19.8822 68.2092H20.1455Z" fill="#FCFCFC"/>
<path d="M29.4442 65.8853C29.4442 65.305 29.2137 64.7485 28.8033 64.3381C28.393 63.9278 27.8365 63.6973 27.2561 63.6973C26.6758 63.6973 26.1193 63.9278 25.709 64.3381C25.2986 64.7485 25.0681 65.305 25.0681 65.8853H25.5364C25.5364 65.4292 25.7176 64.9917 26.0401 64.6692C26.3626 64.3467 26.8 64.1655 27.2561 64.1655C27.7123 64.1655 28.1497 64.3467 28.4722 64.6692C28.7947 64.9917 28.9759 65.4292 28.9759 65.8853H29.4442Z" fill="#FCFCFC"/>
<path d="M34.2311 68.756V70.397H35.7354V68.756M35.7354 68.756H33.5474V68.209H36.4192V68.756H35.7354Z" stroke="#FCFCFC" stroke-width="0.492441"/>
<path d="M36.009 68.2092C36.009 67.9553 35.9082 67.7119 35.7286 67.5323C35.5491 67.3528 35.3056 67.252 35.0517 67.252C34.7979 67.252 34.5544 67.3528 34.3749 67.5323C34.1953 67.7119 34.0945 67.9553 34.0945 68.2092H34.3578C34.3578 68.0252 34.4309 67.8487 34.561 67.7185C34.6912 67.5884 34.8677 67.5153 35.0517 67.5153C35.2358 67.5153 35.4123 67.5884 35.5425 67.7185C35.6726 67.8487 35.7457 68.0252 35.7457 68.2092H36.009Z" fill="#FCFCFC"/>
<path d="M24.5215 73.5429V65.8848H29.7181V73.5429" stroke="#FCFCFC" stroke-width="0.492441"/>
<ellipse cx="65.5" cy="50.25" rx="1.5" ry="0.75" fill="#FCFCFC"/>
<ellipse cx="73" cy="50.25" rx="1.5" ry="0.75" fill="#FCFCFC"/>
<path d="M132.222 29.4766C132.398 29.4766 132.55 29.5469 132.679 29.6875C132.808 29.8164 132.872 29.9336 132.872 30.0391C132.872 30.4492 132.398 31.1055 131.448 32.0078C130.511 32.8984 129.281 33.666 127.757 34.3105C126.234 34.9434 124.622 35.2598 122.923 35.2598C120.181 35.2598 117.796 34.6621 115.769 33.4668C113.753 32.2715 112.206 30.6074 111.128 28.4746C110.05 26.3418 109.511 24.127 109.511 21.8301C109.511 19.5332 110.038 17.3828 111.093 15.3789C112.148 13.3633 113.648 11.793 115.593 10.668C117.538 9.54297 119.794 8.98047 122.361 8.98047C124.001 8.98047 125.513 9.19727 126.896 9.63086C128.29 10.0527 129.386 10.5684 130.183 11.1777C130.991 11.7871 131.396 12.25 131.396 12.5664C131.396 13.0586 131.384 13.5039 131.361 13.9023C131.337 14.3008 131.325 14.541 131.325 14.623C131.325 14.7637 131.366 14.9805 131.448 15.2734C131.531 15.5547 131.572 15.8184 131.572 16.0645C131.572 16.4512 131.331 16.6445 130.851 16.6445C130.698 16.6445 130.546 16.5742 130.394 16.4336C130.241 16.293 130.019 15.9004 129.726 15.2559C129.105 13.8848 128.437 12.8887 127.722 12.2676C126.468 11.1777 124.716 10.6328 122.466 10.6328C119.572 10.6328 117.316 11.6875 115.698 13.7969C114.093 15.8945 113.29 18.6074 113.29 21.9355C113.29 25.5566 114.163 28.4219 115.909 30.5312C117.656 32.6289 120.011 33.6777 122.976 33.6777C123.738 33.6777 124.933 33.4258 126.562 32.9219C128.202 32.4062 129.82 31.416 131.413 29.9512C131.765 29.6348 132.034 29.4766 132.222 29.4766ZM146.724 16.7852C147.263 16.7852 147.726 16.9844 148.113 17.3828C148.511 17.7695 148.71 18.2324 148.71 18.7715C148.71 19.252 148.517 19.6621 148.13 20.002C147.743 20.3301 147.286 20.4941 146.759 20.4941C146.232 20.4941 145.775 20.3125 145.388 19.9492C145.013 19.5742 144.825 19.1289 144.825 18.6133C144.825 18.1211 145.013 17.6934 145.388 17.3301C145.775 16.9668 146.22 16.7852 146.724 16.7852ZM148.13 32.0781C148.13 32.6523 148.236 33.0273 148.447 33.2031C148.657 33.3789 148.939 33.4961 149.29 33.5547C149.642 33.6016 149.888 33.6719 150.029 33.7656C150.181 33.8594 150.257 34.0527 150.257 34.3457C150.257 34.7324 149.917 34.9258 149.238 34.9258C148.945 34.9258 148.505 34.8906 147.919 34.8203C147.333 34.75 146.9 34.7148 146.618 34.7148C146.337 34.7148 145.927 34.7617 145.388 34.8555C144.849 34.9492 144.445 34.9961 144.175 34.9961C143.906 34.9961 143.671 34.9199 143.472 34.7676C143.284 34.6152 143.191 34.416 143.191 34.1699C143.191 34.0176 143.243 33.8887 143.349 33.7832C143.454 33.666 143.724 33.5723 144.157 33.502C144.591 33.4316 144.89 33.291 145.054 33.0801C145.23 32.8691 145.318 32.3594 145.318 31.5508V25.6094C145.318 25.1055 145.212 24.7715 145.001 24.6074C144.79 24.4434 144.48 24.3203 144.07 24.2383C143.659 24.1562 143.402 24.0508 143.296 23.9219C143.202 23.793 143.156 23.6348 143.156 23.4473C143.156 23.2363 143.238 23.0664 143.402 22.9375C143.577 22.7969 143.782 22.7266 144.017 22.7266C144.216 22.7266 144.497 22.7676 144.861 22.8496C145.236 22.9316 145.511 22.9727 145.687 22.9727C145.886 22.9727 146.191 22.9434 146.601 22.8848C147.011 22.8262 147.316 22.7969 147.515 22.7969C147.948 22.7969 148.165 23.1602 148.165 23.8867C148.165 24.0039 148.159 24.1621 148.148 24.3613C148.136 24.5488 148.13 24.6777 148.13 24.748V32.0781ZM166.2 30.9004C166.2 31.8848 166.247 32.5176 166.341 32.7988C166.435 33.0684 166.605 33.2031 166.851 33.2031C167.238 33.2031 167.712 32.9922 168.275 32.5703C168.837 32.1484 169.212 31.9375 169.4 31.9375C169.552 31.9375 169.687 32.0078 169.804 32.1484C169.921 32.2891 169.98 32.459 169.98 32.6582C169.98 32.9863 169.517 33.5312 168.591 34.293C167.677 35.0547 166.868 35.4355 166.165 35.4355C164.314 35.4355 163.388 34.0762 163.388 31.3574V24.5898C163.388 24.3672 163.359 24.25 163.3 24.2383C163.241 24.2148 162.913 24.2031 162.316 24.2031C161.847 24.2031 161.531 24.1387 161.366 24.0098C161.202 23.8691 161.12 23.6699 161.12 23.4121C161.12 23.1895 161.179 23.0312 161.296 22.9375C161.425 22.8438 161.665 22.75 162.017 22.6562C162.38 22.5508 162.656 22.4336 162.843 22.3047C163.042 22.1641 163.312 21.8828 163.652 21.4609C164.003 21.0273 164.249 20.4238 164.39 19.6504C164.542 18.877 164.618 17.7637 164.618 16.3105C164.618 15.6191 164.806 15.2734 165.181 15.2734C165.603 15.2734 165.866 15.373 165.972 15.5723C166.077 15.7598 166.13 16.082 166.13 16.5391V22.4102C166.13 22.6445 166.282 22.7617 166.587 22.7617H169.083C169.587 22.7617 169.839 22.9785 169.839 23.4121C169.839 23.916 169.476 24.168 168.749 24.168H166.552C166.388 24.168 166.288 24.1973 166.253 24.2559C166.218 24.3027 166.2 24.4316 166.2 24.6426V30.9004ZM193.693 22.832C194.103 22.832 194.308 23.1191 194.308 23.6934C194.308 24.8301 194.325 26.4883 194.361 28.668C194.396 30.8477 194.413 32.3125 194.413 33.0625C194.413 35.6875 194.109 37.5625 193.499 38.6875C192.89 39.8242 192.234 40.6152 191.531 41.0605C190.839 41.5059 189.99 41.7285 188.982 41.7285C188.126 41.7285 187.447 41.6055 186.943 41.3594C186.45 41.1133 186.204 40.8906 186.204 40.6914C186.204 40.5977 186.251 40.4922 186.345 40.375C186.439 40.2695 186.55 40.2168 186.679 40.2168C186.773 40.2168 186.96 40.2754 187.241 40.3926C187.534 40.5215 187.863 40.5859 188.226 40.5859C188.882 40.5859 189.521 40.3633 190.142 39.918C190.775 39.4844 191.179 38.8809 191.355 38.1074C191.542 37.334 191.636 36.1797 191.636 34.6445C191.636 29.1367 191.618 26.0723 191.583 25.4512C191.56 24.8301 191.126 24.4551 190.282 24.3262C189.439 24.1855 189.017 23.9043 189.017 23.4824C189.017 23.0488 189.316 22.832 189.913 22.832C190.113 22.832 190.47 22.8672 190.986 22.9375C191.513 23.0078 191.947 23.043 192.286 23.043C192.544 23.043 192.814 23.0078 193.095 22.9375C193.376 22.8672 193.575 22.832 193.693 22.832ZM190.423 32.623C190.728 32.623 190.88 32.7695 190.88 33.0625C190.88 33.4258 190.411 33.877 189.474 34.416C188.536 34.9551 187.605 35.2246 186.679 35.2246C186.046 35.2246 185.366 35.0137 184.64 34.5918C183.913 34.1582 183.456 33.625 183.269 32.9922C183.093 32.3477 183.005 31.1934 183.005 29.5293L183.04 25.9961C183.04 25.0469 182.618 24.4844 181.775 24.3086C181.282 24.2148 180.966 24.127 180.825 24.0449C180.697 23.9512 180.632 23.7754 180.632 23.5176C180.632 23.3301 180.685 23.1719 180.79 23.043C180.896 22.9023 181.036 22.832 181.212 22.832C181.376 22.832 181.71 22.8906 182.214 23.0078C182.718 23.1133 183.04 23.166 183.181 23.166C183.345 23.166 183.685 23.1133 184.2 23.0078C184.716 22.8906 185.038 22.832 185.167 22.832C185.249 22.832 185.349 22.873 185.466 22.9551C185.583 23.0371 185.648 23.125 185.659 23.2188C185.683 23.3125 185.706 24.127 185.73 25.6621C185.765 27.1973 185.782 28.6094 185.782 29.8984C185.782 30.8828 185.818 31.5977 185.888 32.043C185.958 32.4766 186.175 32.834 186.538 33.1152C186.913 33.3848 187.406 33.5195 188.015 33.5195C188.472 33.5195 188.947 33.373 189.439 33.0801C189.931 32.7754 190.259 32.623 190.423 32.623Z" fill="#FCFCFC"/>
<path d="M124.048 48.8672C124.447 48.8672 124.769 49.2832 125.015 50.1152C125.261 50.9473 125.384 51.7207 125.384 52.4355C125.384 53.1504 125.156 53.5078 124.698 53.5078C124.534 53.5078 124.382 53.4551 124.241 53.3496C124.113 53.2441 123.925 52.875 123.679 52.2422C123.445 51.5977 123.087 51.1641 122.607 50.9414C122.138 50.707 121.622 50.5898 121.06 50.5898C120.263 50.5898 119.683 50.7773 119.32 51.1523C118.968 51.5156 118.792 52.1133 118.792 52.9453V71.6133C118.792 71.8945 118.874 72.1465 119.038 72.3691C119.214 72.5801 119.572 72.7676 120.111 72.9316C120.65 73.084 120.978 73.2188 121.095 73.3359C121.212 73.4531 121.271 73.5879 121.271 73.7402C121.271 74.3496 120.948 74.6543 120.304 74.6543C119.952 74.6543 119.437 74.5957 118.757 74.4785C118.077 74.373 117.573 74.3203 117.245 74.3203C116.941 74.3203 116.495 74.3672 115.909 74.4609C115.323 74.5547 114.878 74.6016 114.573 74.6016C114.21 74.6016 113.9 74.5195 113.642 74.3555C113.384 74.1914 113.255 73.9629 113.255 73.6699C113.255 73.5293 113.302 73.4062 113.396 73.3008C113.49 73.1836 113.8 73.0488 114.327 72.8965C114.855 72.7324 115.206 72.4863 115.382 72.1582C115.57 71.8301 115.663 71.4609 115.663 71.0508V52.2246C115.663 51.0879 114.896 50.5195 113.361 50.5195C112.365 50.5195 111.656 50.7422 111.234 51.1875C110.976 51.4453 110.788 51.8438 110.671 52.3828C110.554 52.9102 110.431 53.2266 110.302 53.332C110.185 53.4258 110.038 53.4727 109.863 53.4727C109.675 53.4727 109.493 53.4258 109.318 53.332C109.154 53.2266 109.072 53.0977 109.072 52.9453C109.072 51.668 109.183 50.6719 109.406 49.957C109.628 49.2305 109.95 48.8672 110.372 48.8672H124.048ZM137.882 61.6113C139.827 61.6113 141.521 62.2793 142.962 63.6152C144.415 64.9512 145.142 66.4922 145.142 68.2383C145.142 70.1953 144.45 71.7891 143.068 73.0195C141.685 74.25 139.833 74.8652 137.513 74.8652C135.685 74.8652 134.038 74.2383 132.573 72.9844C131.12 71.7305 130.394 70.1719 130.394 68.3086C130.394 66.5273 131.032 64.9688 132.31 63.6328C133.599 62.2852 135.456 61.6113 137.882 61.6113ZM137.917 73.3184C139.265 73.3184 140.337 72.832 141.134 71.8594C141.943 70.8867 142.347 69.6562 142.347 68.168C142.347 66.7031 141.913 65.502 141.046 64.5645C140.191 63.627 139.101 63.1582 137.777 63.1582C136.417 63.1582 135.363 63.6211 134.613 64.5469C133.863 65.4609 133.488 66.6445 133.488 68.0977C133.488 69.7031 133.904 70.9746 134.736 71.9121C135.568 72.8496 136.628 73.3184 137.917 73.3184ZM161.683 65.3203C161.683 64.4766 161.226 63.9902 160.312 63.8613C159.761 63.7793 159.415 63.6797 159.275 63.5625C159.134 63.4336 159.064 63.2754 159.064 63.0879C159.064 62.6543 159.398 62.4375 160.066 62.4375C160.241 62.4375 160.593 62.502 161.12 62.6309C161.659 62.748 162.234 62.8066 162.843 62.8066C163.007 62.8066 163.212 62.7832 163.458 62.7363C163.704 62.6895 163.857 62.666 163.915 62.666C164.232 62.666 164.39 63.0234 164.39 63.7383C164.39 69.1406 164.437 72.0176 164.531 72.3691C164.624 72.709 165.099 72.9844 165.954 73.1953C166.4 73.3125 166.675 73.418 166.781 73.5117C166.886 73.6055 166.939 73.7168 166.939 73.8457C166.939 73.998 166.839 74.1387 166.64 74.2676C166.452 74.3965 166.206 74.4609 165.902 74.4609C165.773 74.4609 165.456 74.4199 164.952 74.3379C164.448 74.2559 164.091 74.2148 163.88 74.2148C163.657 74.2148 163.388 74.2559 163.072 74.3379C162.755 74.4199 162.544 74.4609 162.439 74.4609C162.181 74.4609 162.005 74.3906 161.911 74.25C161.818 74.1094 161.753 73.7637 161.718 73.2129C161.695 72.6621 161.683 71.6016 161.683 70.0312V65.3203ZM155.865 71.332C155.865 71.9062 156.081 72.3809 156.515 72.7559C156.96 73.1309 157.488 73.3184 158.097 73.3184C158.472 73.3184 158.911 73.1719 159.415 72.8789C159.931 72.5742 160.306 72.4219 160.54 72.4219C160.775 72.4219 160.892 72.5625 160.892 72.8438C160.892 73.1719 160.452 73.5938 159.573 74.1094C158.706 74.6133 157.722 74.8652 156.62 74.8652C155.765 74.8652 155.015 74.6016 154.37 74.0742C153.738 73.5469 153.368 72.9609 153.263 72.3164C153.169 71.6719 153.122 69.2578 153.122 65.0742C153.122 64.5117 152.548 64.1016 151.4 63.8438C150.896 63.7383 150.644 63.5449 150.644 63.2637C150.644 63.0762 150.72 62.9297 150.872 62.8242C151.036 62.7188 151.236 62.666 151.47 62.666C151.54 62.666 151.88 62.7129 152.49 62.8066C153.111 62.9004 153.632 62.9473 154.054 62.9473C154.206 62.9473 154.429 62.9062 154.722 62.8242C155.027 62.7305 155.214 62.6836 155.284 62.6836C155.671 62.6836 155.865 63.4805 155.865 65.0742V71.332ZM178.013 65.7949L178.083 66.2871C178.142 66.2871 178.417 65.7305 178.909 64.6172C179.402 63.5039 179.888 62.7129 180.368 62.2441C180.849 61.7754 181.347 61.541 181.863 61.541C182.261 61.541 182.56 61.6113 182.759 61.752C182.97 61.8926 183.075 62.0508 183.075 62.2266C183.075 62.5312 183.005 62.7773 182.865 62.9648C182.724 63.1406 182.478 63.3633 182.126 63.6328C180.638 64.7695 179.56 66.1523 178.892 67.7812C178.236 69.4102 177.907 70.7637 177.907 71.8418C177.907 72.3457 177.972 72.6914 178.101 72.8789C178.241 73.0547 178.57 73.207 179.085 73.3359C179.601 73.4531 179.935 73.582 180.087 73.7227C180.24 73.8633 180.316 74.0273 180.316 74.2148C180.316 74.5547 180.111 74.7246 179.7 74.7246C179.372 74.7246 178.915 74.666 178.329 74.5488C177.755 74.4434 177.134 74.3906 176.466 74.3906C176.021 74.3906 175.57 74.4434 175.113 74.5488C174.656 74.666 174.363 74.7246 174.234 74.7246C173.906 74.7246 173.642 74.6602 173.443 74.5312C173.243 74.4141 173.144 74.2617 173.144 74.0742C173.144 73.9336 173.197 73.8105 173.302 73.7051C173.419 73.5879 173.736 73.4414 174.251 73.2656C174.767 73.0898 175.083 72.9141 175.2 72.7383C175.318 72.5625 175.376 72.0117 175.376 71.0859V65.7246C175.376 65.3848 175.294 65.0801 175.13 64.8105C174.978 64.541 174.661 64.3359 174.181 64.1953C173.712 64.043 173.431 63.9141 173.337 63.8086C173.255 63.7031 173.214 63.5859 173.214 63.457C173.214 63.0703 173.49 62.877 174.04 62.877C174.193 62.877 174.445 62.9062 174.796 62.9648C175.159 63.0234 175.411 63.0527 175.552 63.0527C175.669 63.0527 175.857 63.0293 176.115 62.9824C176.384 62.9355 176.7 62.9121 177.064 62.9121C177.697 62.9121 178.013 63.5859 178.013 64.9336V65.7949ZM191.812 64.3887C191.812 64.6582 191.935 64.9336 192.181 65.2148C192.439 65.4961 193.247 65.9941 194.607 66.709C195.966 67.4238 196.88 68.127 197.349 68.8184C197.829 69.498 198.07 70.2188 198.07 70.9805C198.07 72.1641 197.572 73.1074 196.575 73.8105C195.591 74.5137 194.314 74.8652 192.743 74.8652C191.876 74.8652 191.009 74.6719 190.142 74.2852C189.286 73.9102 188.859 73.5293 188.859 73.1426C188.859 72.8262 188.835 72.4395 188.788 71.9824C188.741 71.5137 188.718 71.1387 188.718 70.8574C188.718 70.2832 188.982 69.9961 189.509 69.9961C189.661 69.9961 189.802 70.0605 189.931 70.1895C190.06 70.3184 190.265 70.752 190.546 71.4902C190.827 72.2168 191.167 72.7148 191.566 72.9844C191.976 73.2539 192.433 73.3887 192.937 73.3887C193.558 73.3887 194.085 73.1836 194.519 72.7734C194.952 72.3633 195.169 71.8359 195.169 71.1914C195.169 70.7695 195.023 70.377 194.73 70.0137C194.437 69.6387 193.634 69.1406 192.322 68.5195C191.021 67.8984 190.171 67.2949 189.773 66.709C189.386 66.1113 189.193 65.4668 189.193 64.7754C189.193 63.8613 189.615 63.0938 190.458 62.4727C191.314 61.8516 192.304 61.541 193.429 61.541C194.366 61.541 195.281 61.7051 196.171 62.0332C197.062 62.3496 197.507 62.6895 197.507 63.0527C197.507 63.2754 197.531 63.5508 197.577 63.8789C197.624 64.207 197.648 64.4707 197.648 64.6699C197.648 64.916 197.583 65.1328 197.454 65.3203C197.337 65.5078 197.185 65.6016 196.997 65.6016C196.728 65.6016 196.534 65.5371 196.417 65.4082C196.312 65.2676 196.212 65.0273 196.118 64.6875C196.025 64.3477 195.872 64.0781 195.661 63.8789C195.45 63.6797 195.169 63.498 194.818 63.334C194.466 63.1699 194.073 63.0879 193.64 63.0879C193.206 63.0879 192.79 63.2285 192.392 63.5098C192.005 63.7793 191.812 64.0723 191.812 64.3887Z" fill="#FCFCFC"/>
</svg>
