<svg width="20" height="20" viewBox="0 0 20 20" fill="none" xmlns="http://www.w3.org/2000/svg">
<path d="M19.105 15.5C16.635 15.5 12.535 14.17 10.425 10.07C8.09495 5.56 9.92495 1.59 10.955 0C5.59495 0.19 1.30495 4.58 1.30495 9.99C1.30495 10.13 1.32495 10.27 1.32495 10.41C1.93495 10.15 2.60495 9.99 3.30495 9.99C3.30495 6.9 5.03495 4.22 7.60495 2.89C7.10495 5.08 7.06495 7.93 8.64495 10.99C10.215 14.03 12.825 15.94 15.445 16.85C14.215 17.59 12.795 18 11.315 18C10.815 18 10.315 17.95 9.83495 17.86C9.46495 18.56 8.89495 19.13 8.19495 19.5C9.17495 19.82 10.225 20 11.305 20C14.805 20 17.885 18.2 19.675 15.48C19.505 15.49 19.305 15.5 19.105 15.5Z" fill="#FCFCFC"/>
<path d="M6.32495 13.99H6.14495C5.72495 12.83 4.62495 11.99 3.32495 11.99C1.66495 11.99 0.324951 13.33 0.324951 14.99C0.324951 16.65 1.66495 17.99 3.32495 17.99C3.94495 17.99 5.81495 17.99 6.32495 17.99C7.42495 17.99 8.32495 17.09 8.32495 15.99C8.32495 14.89 7.42495 13.99 6.32495 13.99Z" fill="#FCFCFC"/>
</svg>
